<?xml version="1.0" standalone="yes"?>

<svg version="1.1" viewBox="0.0 0.0 940.4461942257218 220.09448818897638" fill="none" stroke="none" stroke-linecap="square" stroke-miterlimit="10" xmlns="http://www.w3.org/2000/svg" xmlns:xlink="http://www.w3.org/1999/xlink"><clipPath id="p.0"><path d="m0 0l940.44617 0l0 220.09448l-940.44617 0l0 -220.09448z" clip-rule="nonzero"></path></clipPath><g clip-path="url(#p.0)"><path fill="#000000" fill-opacity="0.0" d="m0 0l940.44617 0l0 220.09448l-940.44617 0z" fill-rule="evenodd"></path><path fill="#cfe2f3" d="m23.562992 114.2021l0 0c0 -40.929955 33.180283 -74.110245 74.11023 -74.110245l0 0c19.655258 0 38.505486 7.8080215 52.403847 21.706387c13.898376 13.898369 21.70639 32.748596 21.70639 52.403854l0 0c0 40.929947 -33.180283 74.11023 -74.11024 74.11023l0 0c-40.92995 0 -74.11023 -33.180283 -74.11023 -74.11023z" fill-rule="evenodd"></path><path stroke="#000000" stroke-width="1.0" stroke-linejoin="round" stroke-linecap="butt" d="m23.562992 114.2021l0 0c0 -40.929955 33.180283 -74.110245 74.11023 -74.110245l0 0c19.655258 0 38.505486 7.8080215 52.403847 21.706387c13.898376 13.898369 21.70639 32.748596 21.70639 52.403854l0 0c0 40.929947 -33.180283 74.11023 -74.11024 74.11023l0 0c-40.92995 0 -74.11023 -33.180283 -74.11023 -74.11023z" fill-rule="evenodd"></path><path fill="#000000" fill-opacity="0.0" d="m171.78346 114.2021l83.81102 0" fill-rule="evenodd"></path><path stroke="#000000" stroke-width="2.0" stroke-linejoin="round" stroke-linecap="butt" d="m171.78346 114.2021l71.81102 0" fill-rule="evenodd"></path><path fill="#000000" stroke="#000000" stroke-width="2.0" stroke-linecap="butt" d="m243.59448 117.50556l9.076202 -3.3034592l-9.076202 -3.3034668z" fill-rule="evenodd"></path><path fill="#cfe2f3" d="m255.59448 114.2021l0 0c0 -40.929955 33.180298 -74.110245 74.11023 -74.110245l0 0c19.655273 0 38.505493 7.8080215 52.40387 21.706387c13.898346 13.898369 21.70639 32.748596 21.70639 52.403854l0 0c0 40.929947 -33.180298 74.11023 -74.11026 74.11023l0 0c-40.92993 0 -74.11023 -33.180283 -74.11023 -74.11023z" fill-rule="evenodd"></path><path stroke="#000000" stroke-width="1.0" stroke-linejoin="round" stroke-linecap="butt" d="m255.59448 114.2021l0 0c0 -40.929955 33.180298 -74.110245 74.11023 -74.110245l0 0c19.655273 0 38.505493 7.8080215 52.40387 21.706387c13.898346 13.898369 21.70639 32.748596 21.70639 52.403854l0 0c0 40.929947 -33.180298 74.11023 -74.11026 74.11023l0 0c-40.92993 0 -74.11023 -33.180283 -74.11023 -74.11023z" fill-rule="evenodd"></path><path fill="#000000" fill-opacity="0.0" d="m403.81497 114.2021l83.811005 0" fill-rule="evenodd"></path><path stroke="#000000" stroke-width="2.0" stroke-linejoin="round" stroke-linecap="butt" d="m403.81497 114.2021l71.811005 0" fill-rule="evenodd"></path><path fill="#000000" stroke="#000000" stroke-width="2.0" stroke-linecap="butt" d="m475.62598 117.50556l9.076202 -3.3034592l-9.076202 -3.3034668z" fill-rule="evenodd"></path><path fill="#cfe2f3" d="m487.62598 114.2021l0 0c0 -40.929955 33.180298 -74.110245 74.11023 -74.110245l0 0c19.655273 0 38.505493 7.8080215 52.40387 21.706387c13.898376 13.898369 21.70636 32.748596 21.70636 52.403854l0 0c0 40.929947 -33.180237 74.11023 -74.11023 74.11023l0 0c-40.92993 0 -74.11023 -33.180283 -74.11023 -74.11023z" fill-rule="evenodd"></path><path stroke="#000000" stroke-width="1.0" stroke-linejoin="round" stroke-linecap="butt" d="m487.62598 114.2021l0 0c0 -40.929955 33.180298 -74.110245 74.11023 -74.110245l0 0c19.655273 0 38.505493 7.8080215 52.40387 21.706387c13.898376 13.898369 21.70636 32.748596 21.70636 52.403854l0 0c0 40.929947 -33.180237 74.11023 -74.11023 74.11023l0 0c-40.92993 0 -74.11023 -33.180283 -74.11023 -74.11023z" fill-rule="evenodd"></path><path fill="#000000" fill-opacity="0.0" d="m635.84644 114.2021l60.0 0" fill-rule="evenodd"></path><path stroke="#000000" stroke-width="2.0" stroke-linejoin="round" stroke-linecap="butt" d="m635.84644 114.2021l48.0 0" fill-rule="evenodd"></path><path fill="#000000" stroke="#000000" stroke-width="2.0" stroke-linecap="butt" d="m683.84644 117.50556l9.076233 -3.3034592l-9.076233 -3.3034668z" fill-rule="evenodd"></path><path fill="#000000" fill-opacity="0.0" d="m831.0853 114.2021l-49.448853 0" fill-rule="evenodd"></path><path stroke="#000000" stroke-width="2.0" stroke-linejoin="round" stroke-linecap="butt" d="m831.0853 114.2021l-37.448853 0" fill-rule="evenodd"></path><path fill="#000000" stroke="#000000" stroke-width="2.0" stroke-linecap="butt" d="m793.6365 110.898636l-9.076172 3.3034668l9.076172 3.3034592z" fill-rule="evenodd"></path><path fill="#000000" fill-opacity="0.0" d="m695.84644 86.04462l85.79529 0l0 56.314957l-85.79529 0z" fill-rule="evenodd"></path><path stroke="#000000" stroke-width="1.0" stroke-linejoin="round" stroke-linecap="butt" d="m695.84644 86.04462l85.79529 0l0 56.314957l-85.79529 0z" fill-rule="evenodd"></path><path fill="#000000" d="m732.1894 125.9221l0 -22.90625l3.03125 0l0 20.203125l11.28125 0l0 2.703125l-14.3125 0z" fill-rule="nonzero"></path><path fill="#cccccc" d="m831.0853 86.04462l85.79523 0l0 56.314957l-85.79523 0z" fill-rule="evenodd"></path><path stroke="#000000" stroke-width="1.0" stroke-linejoin="round" stroke-linecap="butt" d="m831.0853 86.04462l85.79523 0l0 56.314957l-85.79523 0z" fill-rule="evenodd"></path><path fill="#000000" d="m867.9673 132.31273l-0.3125 -2.640625q0.921875 0.25 1.609375 0.25q0.9375 0 1.5 -0.3125q0.5625 -0.3125 0.921875 -0.875q0.265625 -0.421875 0.859375 -2.0937576q0.078125 -0.234375 0.25 -0.6875l-6.296875 -16.625l3.03125 0l3.453125 9.609375q0.671875 1.828125 1.203125 3.84375q0.484375 -1.9375 1.15625 -3.78125l3.546875 -9.671875l2.8125 0l-6.3125 16.875q-1.015625 2.7343826 -1.578125 3.7656326q-0.75 1.390625 -1.71875 2.03125q-0.96875 0.65625 -2.3125 0.65625q-0.8125 0 -1.8125 -0.34375z" fill-rule="nonzero"></path><path fill="#000000" fill-opacity="0.0" d="m561.7362 40.09186l0 148.22047" fill-rule="evenodd"></path><path stroke="#000000" stroke-width="1.0" stroke-linejoin="round" stroke-linecap="butt" d="m561.7362 40.09186l0 148.22047" fill-rule="evenodd"></path><path fill="#000000" fill-opacity="0.0" d="m329.7047 40.09186l0 148.22047" fill-rule="evenodd"></path><path stroke="#000000" stroke-width="1.0" stroke-linejoin="round" stroke-linecap="butt" d="m329.7047 40.09186l0 148.22047" fill-rule="evenodd"></path><path fill="#000000" fill-opacity="0.0" d="m255.59448 86.04462l85.79529 0l0 56.314957l-85.79529 0z" fill-rule="evenodd"></path><path fill="#000000" d="m278.4432 120.96897l2.78125 -0.4375q0.234375 1.671875 1.296875 2.5625q1.078125 0.890625 3.0 0.890625q1.9375 0 2.875 -0.78125q0.9375 -0.796875 0.9375 -1.859375q0 -0.953125 -0.828125 -1.5q-0.578125 -0.375 -2.875 -0.953125q-3.09375 -0.78125 -4.296875 -1.34375q-1.1875 -0.578125 -1.8125 -1.578125q-0.609375 -1.015625 -0.609375 -2.234375q0 -1.109375 0.5 -2.046875q0.515625 -0.953125 1.390625 -1.578125q0.65625 -0.484375 1.78125 -0.8125q1.140625 -0.34375 2.4375 -0.34375q1.953125 0 3.421875 0.5625q1.484375 0.5625 2.1875 1.53125q0.703125 0.953125 0.96875 2.5625l-2.75 0.375q-0.1875 -1.28125 -1.09375 -2.0q-0.890625 -0.71875 -2.53125 -0.71875q-1.9375 0 -2.765625 0.640625q-0.828125 0.640625 -0.828125 1.5q0 0.546875 0.34375 0.984375q0.34375 0.453125 1.078125 0.75q0.421875 0.15625 2.484375 0.71875q2.984375 0.796875 4.15625 1.3125q1.1875 0.5 1.859375 1.46875q0.671875 0.96875 0.671875 2.40625q0 1.40625 -0.828125 2.65625q-0.8125 1.234375 -2.359375 1.921875q-1.546875 0.671875 -3.5 0.671875q-3.234375 0 -4.9375 -1.34375q-1.6875 -1.34375 -2.15625 -3.984375z" fill-rule="nonzero"></path><path fill="#000000" d="m298.36508 118.34397q-1.515625 -1.9375 -2.578125 -4.515625q-1.0625 -2.578125 -1.0625 -5.34375q0 -2.453125 0.796875 -4.6875q0.921875 -2.59375 2.84375 -5.15625l1.328125 0q-1.234375 2.125 -1.640625 3.03125q-0.625 1.421875 -0.984375 2.953125q-0.4375 1.921875 -0.4375 3.859375q0 4.9375 3.0625 9.859375l-1.328125 0zm10.0243225 -4.421875l-1.84375 0l0 -11.765625q-0.671875 0.640625 -1.765625 1.28125q-1.078125 0.625 -1.9375 0.953125l0 -1.796875q1.546875 -0.71875 2.703125 -1.75q1.171875 -1.046875 1.65625 -2.015625l1.1875 0l0 15.09375zm6.6273193 4.421875l-1.328125 0q3.078125 -4.921875 3.078125 -9.859375q0 -1.921875 -0.453125 -3.828125q-0.34375 -1.53125 -0.96875 -2.953125q-0.40625 -0.921875 -1.65625 -3.0625l1.328125 0q1.921875 2.5625 2.84375 5.15625q0.796875 2.234375 0.796875 4.6875q0 2.765625 -1.0625 5.34375q-1.0625 2.578125 -2.578125 4.515625z" fill-rule="nonzero"></path><path fill="#000000" fill-opacity="0.0" d="m54.77559 86.04462l85.79527 0l0 56.314957l-85.79527 0z" fill-rule="evenodd"></path><path fill="#000000" d="m89.9076 125.9221l6.0625 -8.625l-5.609375 -7.96875l3.515625 0l2.546875 3.890625q0.71875 1.109375 1.15625 1.859375q0.6875 -1.03125 1.265625 -1.828125l2.796875 -3.921875l3.359375 0l-5.734375 7.8125l6.171875 8.78125l-3.453125 0l-3.40625 -5.15625l-0.90625 -1.390625l-4.359375 6.546875l-3.40625 0z" fill-rule="nonzero"></path><path fill="#000000" fill-opacity="0.0" d="m328.7126 86.04462l85.79529 0l0 56.314957l-85.79529 0z" fill-rule="evenodd"></path><path fill="#000000" d="m351.20197 125.9221l0 -2.28125l10.5625 -12.125q-1.796875 0.09375 -3.171875 0.09375l-6.765625 0l0 -2.28125l13.5625 0l0 1.859375l-8.984375 10.53125l-1.734375 1.921875q1.890625 -0.140625 3.546875 -0.140625l7.671875 0l0 2.421875l-14.6875 0z" fill-rule="nonzero"></path><path fill="#000000" d="m371.48322 118.34397q-1.515625 -1.9375 -2.578125 -4.515625q-1.0625 -2.578125 -1.0625 -5.34375q0 -2.453125 0.796875 -4.6875q0.921875 -2.59375 2.84375 -5.15625l1.328125 0q-1.234375 2.125 -1.640625 3.03125q-0.625 1.421875 -0.984375 2.953125q-0.4375 1.921875 -0.4375 3.859375q0 4.9375 3.0625 9.859375l-1.328125 0zm10.024292 -4.421875l-1.84375 0l0 -11.765625q-0.671875 0.640625 -1.765625 1.28125q-1.078125 0.625 -1.9375 0.953125l0 -1.796875q1.546875 -0.71875 2.703125 -1.75q1.171875 -1.046875 1.65625 -2.015625l1.1875 0l0 15.09375zm6.6273193 4.421875l-1.328125 0q3.078125 -4.921875 3.078125 -9.859375q0 -1.921875 -0.453125 -3.828125q-0.34375 -1.53125 -0.96875 -2.953125q-0.40625 -0.921875 -1.65625 -3.0625l1.328125 0q1.921875 2.5625 2.84375 5.15625q0.796875 2.234375 0.796875 4.6875q0 2.765625 -1.0625 5.34375q-1.0625 2.578125 -2.578125 4.515625z" fill-rule="nonzero"></path><path fill="#000000" fill-opacity="0.0" d="m487.62598 86.04462l85.79529 0l0 56.314957l-85.79529 0z" fill-rule="evenodd"></path><path fill="#000000" d="m510.47473 120.96897l2.78125 -0.4375q0.234375 1.671875 1.296875 2.5625q1.078125 0.890625 3.0 0.890625q1.9375 0 2.875 -0.78125q0.9375 -0.796875 0.9375 -1.859375q0 -0.953125 -0.828125 -1.5q-0.578125 -0.375 -2.875 -0.953125q-3.09375 -0.78125 -4.296875 -1.34375q-1.1875 -0.578125 -1.8125 -1.578125q-0.609375 -1.015625 -0.609375 -2.234375q0 -1.109375 0.5 -2.046875q0.515625 -0.953125 1.390625 -1.578125q0.65625 -0.484375 1.78125 -0.8125q1.140625 -0.34375 2.4375 -0.34375q1.953125 0 3.421875 0.5625q1.484375 0.5625 2.1875 1.53125q0.703125 0.953125 0.96875 2.5625l-2.75 0.375q-0.1875 -1.28125 -1.09375 -2.0q-0.890625 -0.71875 -2.53125 -0.71875q-1.9375 0 -2.765625 0.640625q-0.828125 0.640625 -0.828125 1.5q0 0.546875 0.34375 0.984375q0.34375 0.453125 1.078125 0.75q0.421875 0.15625 2.484375 0.71875q2.984375 0.796875 4.15625 1.3125q1.1875 0.5 1.859375 1.46875q0.671875 0.96875 0.671875 2.40625q0 1.40625 -0.828125 2.65625q-0.8125 1.234375 -2.359375 1.921875q-1.546875 0.671875 -3.5 0.671875q-3.234375 0 -4.9375 -1.34375q-1.6875 -1.34375 -2.15625 -3.984375z" fill-rule="nonzero"></path><path fill="#000000" d="m530.3966 118.34397q-1.515625 -1.9375 -2.578125 -4.515625q-1.0625 -2.578125 -1.0625 -5.34375q0 -2.453125 0.796875 -4.6875q0.921875 -2.59375 2.84375 -5.15625l1.328125 0q-1.234375 2.125 -1.640625 3.03125q-0.625 1.421875 -0.984375 2.953125q-0.4375 1.921875 -0.4375 3.859375q0 4.9375 3.0625 9.859375l-1.328125 0zm12.774292 -6.203125l0 1.78125l-9.9375 0q-0.03125 -0.671875 0.203125 -1.28125q0.390625 -1.015625 1.21875 -2.0q0.84375 -0.984375 2.421875 -2.28125q2.453125 -2.0 3.3125 -3.171875q0.859375 -1.1875 0.859375 -2.234375q0 -1.09375 -0.796875 -1.84375q-0.78125 -0.75 -2.03125 -0.75q-1.34375 0 -2.140625 0.796875q-0.796875 0.796875 -0.8125 2.21875l-1.890625 -0.203125q0.1875 -2.125 1.453125 -3.234375q1.28125 -1.109375 3.421875 -1.109375q2.171875 0 3.421875 1.203125q1.265625 1.203125 1.265625 2.96875q0 0.90625 -0.375 1.78125q-0.359375 0.859375 -1.21875 1.828125q-0.859375 0.96875 -2.84375 2.640625q-1.65625 1.40625 -2.140625 1.90625q-0.46875 0.484375 -0.765625 0.984375l7.375 0zm3.8773193 6.203125l-1.328125 0q3.078125 -4.921875 3.078125 -9.859375q0 -1.921875 -0.453125 -3.828125q-0.34375 -1.53125 -0.96875 -2.953125q-0.40625 -0.921875 -1.65625 -3.0625l1.328125 0q1.921875 2.5625 2.84375 5.15625q0.796875 2.234375 0.796875 4.6875q0 2.765625 -1.0625 5.34375q-1.0625 2.578125 -2.578125 4.515625z" fill-rule="nonzero"></path><path fill="#000000" fill-opacity="0.0" d="m571.437 86.04462l85.79529 0l0 56.314957l-85.79529 0z" fill-rule="evenodd"></path><path fill="#000000" d="m582.4214 132.31273l-0.3125 -2.640625q0.921875 0.25 1.609375 0.25q0.9375 0 1.5 -0.3125q0.5625 -0.3125 0.921875 -0.875q0.265625 -0.421875 0.859375 -2.0937576q0.078125 -0.234375 0.25 -0.6875l-6.296875 -16.625l3.03125 0l3.453125 9.609375q0.671875 1.828125 1.203125 3.84375q0.484375 -1.9375 1.15625 -3.78125l3.546875 -9.671875l2.8125 0l-6.3125 16.875q-1.015625 2.7343826 -1.578125 3.7656326q-0.75 1.390625 -1.71875 2.03125q-0.96875 0.65625 -2.3125 0.65625q-0.8125 0 -1.8125 -0.34375z" fill-rule="nonzero"></path><path fill="#000000" fill-opacity="0.0" d="m581.96454 106.07087l8.063049 -7.2755966" fill-rule="evenodd"></path><path stroke="#000000" stroke-width="2.0" stroke-linejoin="round" stroke-linecap="butt" d="m581.96454 106.07087l8.063049 -7.2755966" fill-rule="evenodd"></path><path fill="#000000" fill-opacity="0.0" d="m588.4685 98.79527l7.527527 7.2755966" fill-rule="evenodd"></path><path stroke="#000000" stroke-width="2.0" stroke-linejoin="round" stroke-linecap="butt" d="m588.4685 98.79527l7.527527 7.2755966" fill-rule="evenodd"></path><path fill="#000000" fill-opacity="0.0" d="m170.79134 54.267715l85.79527 0l0 56.314964l-85.79527 0z" fill-rule="evenodd"></path><path fill="#000000" d="m194.27289 94.145195l-5.078125 -16.59375l2.90625 0l2.640625 9.578125l0.984375 3.5625q0.0625 -0.265625 0.859375 -3.421875l2.640625 -9.71875l2.890625 0l2.484375 9.625l0.828125 3.171875l0.953125 -3.203125l2.84375 -9.59375l2.734375 0l-5.1875 16.59375l-2.921875 0l-2.640625 -9.9375l-0.640625 -2.828125l-3.359375 12.765625l-2.9375 0z" fill-rule="nonzero"></path><path fill="#000000" d="m217.11664 86.56707q-1.515625 -1.9375 -2.578125 -4.515625q-1.0625 -2.578125 -1.0625 -5.34375q0 -2.453125 0.796875 -4.6875q0.921875 -2.59375 2.84375 -5.15625l1.328125 0q-1.234375 2.125 -1.640625 3.03125q-0.625 1.421875 -0.984375 2.953125q-0.4375 1.921875 -0.4375 3.859375q0 4.9375 3.0625 9.859375l-1.328125 0zm10.024307 -4.421875l-1.84375 0l0 -11.765625q-0.671875 0.640625 -1.765625 1.28125q-1.078125 0.625 -1.9375 0.953125l0 -1.796875q1.546875 -0.71875 2.703125 -1.75q1.171875 -1.046875 1.65625 -2.015625l1.1875 0l0 15.09375zm6.6273193 4.421875l-1.328125 0q3.078125 -4.921875 3.078125 -9.859375q0 -1.921875 -0.453125 -3.828125q-0.34375 -1.53125 -0.96875 -2.953125q-0.40625 -0.921875 -1.65625 -3.0625l1.328125 0q1.921875 2.5625 2.84375 5.15625q0.796875 2.234375 0.796875 4.6875q0 2.765625 -1.0625 5.34375q-1.0625 2.578125 -2.578125 4.515625z" fill-rule="nonzero"></path><path fill="#000000" fill-opacity="0.0" d="m402.82285 54.267715l85.79526 0l0 56.314964l-85.79526 0z" fill-rule="evenodd"></path><path fill="#000000" d="m426.30438 94.145195l-5.078125 -16.59375l2.90625 0l2.640625 9.578125l0.984375 3.5625q0.0625 -0.265625 0.859375 -3.421875l2.640625 -9.71875l2.890625 0l2.484375 9.625l0.828125 3.171875l0.953125 -3.203125l2.84375 -9.59375l2.734375 0l-5.1875 16.59375l-2.921875 0l-2.640625 -9.9375l-0.640625 -2.828125l-3.359375 12.765625l-2.9375 0z" fill-rule="nonzero"></path><path fill="#000000" d="m449.14813 86.56707q-1.515625 -1.9375 -2.578125 -4.515625q-1.0625 -2.578125 -1.0625 -5.34375q0 -2.453125 0.796875 -4.6875q0.921875 -2.59375 2.84375 -5.15625l1.328125 0q-1.234375 2.125 -1.640625 3.03125q-0.625 1.421875 -0.984375 2.953125q-0.4375 1.921875 -0.4375 3.859375q0 4.9375 3.0625 9.859375l-1.328125 0zm12.774292 -6.203125l0 1.78125l-9.9375 0q-0.03125 -0.671875 0.203125 -1.28125q0.390625 -1.015625 1.21875 -2.0q0.84375 -0.984375 2.421875 -2.28125q2.453125 -2.0 3.3125 -3.171875q0.859375 -1.1875 0.859375 -2.234375q0 -1.09375 -0.796875 -1.84375q-0.78125 -0.75 -2.03125 -0.75q-1.34375 0 -2.140625 0.796875q-0.796875 0.796875 -0.8125 2.21875l-1.890625 -0.203125q0.1875 -2.125 1.453125 -3.234375q1.28125 -1.109375 3.421875 -1.109375q2.171875 0 3.421875 1.203125q1.265625 1.203125 1.265625 2.96875q0 0.90625 -0.375 1.78125q-0.359375 0.859375 -1.21875 1.828125q-0.859375 0.96875 -2.84375 2.640625q-1.65625 1.40625 -2.140625 1.90625q-0.46875 0.484375 -0.765625 0.984375l7.375 0zm3.8773193 6.203125l-1.328125 0q3.078125 -4.921875 3.078125 -9.859375q0 -1.921875 -0.453125 -3.828125q-0.34375 -1.53125 -0.96875 -2.953125q-0.40625 -0.921875 -1.65625 -3.0625l1.328125 0q1.921875 2.5625 2.84375 5.15625q0.796875 2.234375 0.796875 4.6875q0 2.765625 -1.0625 5.34375q-1.0625 2.578125 -2.578125 4.515625z" fill-rule="nonzero"></path></g></svg>

