<?xml version="1.0" standalone="yes"?>

<svg version="1.1" viewBox="0.0 0.0 1009.8608923884515 505.81102362204723" fill="none" stroke="none" stroke-linecap="square" stroke-miterlimit="10" xmlns="http://www.w3.org/2000/svg" xmlns:xlink="http://www.w3.org/1999/xlink"><clipPath id="p.0"><path d="m0 0l1009.8609 0l0 505.81104l-1009.8609 0l0 -505.81104z" clip-rule="nonzero"></path></clipPath><g clip-path="url(#p.0)"><path fill="#000000" fill-opacity="0.0" d="m0 0l1009.8609 0l0 505.81104l-1009.8609 0z" fill-rule="evenodd"></path><path fill="#cfe2f3" d="m4.9514437 265.77167l0 0c0 -32.65004 26.468079 -59.11812 59.118114 -59.11812l0 0c15.679092 0 30.716019 6.228485 41.80281 17.315292c11.0868 11.086792 17.3153 26.123718 17.3153 41.802826l0 0c0 32.650024 -26.468086 59.118103 -59.11811 59.118103l0 0c-32.650032 0 -59.118114 -26.468079 -59.118114 -59.118103z" fill-rule="evenodd"></path><path stroke="#000000" stroke-width="1.0" stroke-linejoin="round" stroke-linecap="butt" d="m4.9514437 265.77167l0 0c0 -32.65004 26.468079 -59.11812 59.118114 -59.11812l0 0c15.679092 0 30.716019 6.228485 41.80281 17.315292c11.0868 11.086792 17.3153 26.123718 17.3153 41.802826l0 0c0 32.650024 -26.468086 59.118103 -59.11811 59.118103l0 0c-32.650032 0 -59.118114 -26.468079 -59.118114 -59.118103z" fill-rule="evenodd"></path><path fill="#cfe2f3" d="m171.17717 265.77167l0 0c0 -32.65004 26.468079 -59.11812 59.118103 -59.11812l0 0c15.679108 0 30.716019 6.228485 41.80281 17.315292c11.086792 11.086792 17.315308 26.123718 17.315308 41.802826l0 0c0 32.650024 -26.468079 59.118103 -59.11812 59.118103l0 0c-32.650024 0 -59.118103 -26.468079 -59.118103 -59.118103z" fill-rule="evenodd"></path><path stroke="#000000" stroke-width="1.0" stroke-linejoin="round" stroke-linecap="butt" d="m171.17717 265.77167l0 0c0 -32.65004 26.468079 -59.11812 59.118103 -59.11812l0 0c15.679108 0 30.716019 6.228485 41.80281 17.315292c11.086792 11.086792 17.315308 26.123718 17.315308 41.802826l0 0c0 32.650024 -26.468079 59.118103 -59.11812 59.118103l0 0c-32.650024 0 -59.118103 -26.468079 -59.118103 -59.118103z" fill-rule="evenodd"></path><path fill="#cfe2f3" d="m337.4029 147.53543l0 0c0 -32.650032 26.468079 -59.11811 59.118103 -59.11811l0 0c15.679108 0 30.716034 6.2285004 41.802826 17.3153c11.086792 11.086792 17.315277 26.123718 17.315277 41.80281l0 0c0 32.65004 -26.468079 59.11812 -59.118103 59.11812l0 0c-32.650024 0 -59.118103 -26.468079 -59.118103 -59.11812z" fill-rule="evenodd"></path><path stroke="#000000" stroke-width="1.0" stroke-linejoin="round" stroke-linecap="butt" d="m337.4029 147.53543l0 0c0 -32.650032 26.468079 -59.11811 59.118103 -59.11811l0 0c15.679108 0 30.716034 6.2285004 41.802826 17.3153c11.086792 11.086792 17.315277 26.123718 17.315277 41.80281l0 0c0 32.65004 -26.468079 59.11812 -59.118103 59.11812l0 0c-32.650024 0 -59.118103 -26.468079 -59.118103 -59.11812z" fill-rule="evenodd"></path><path fill="#cfe2f3" d="m337.4029 384.00787l0 0c0 -32.650024 26.468079 -59.118103 59.118103 -59.118103l0 0c15.679108 0 30.716034 6.228485 41.802826 17.315277c11.086792 11.086792 17.315277 26.123718 17.315277 41.802826l0 0c0 32.650024 -26.468079 59.118103 -59.118103 59.118103l0 0c-32.650024 0 -59.118103 -26.468079 -59.118103 -59.118103z" fill-rule="evenodd"></path><path stroke="#000000" stroke-width="1.0" stroke-linejoin="round" stroke-linecap="butt" d="m337.4029 384.00787l0 0c0 -32.650024 26.468079 -59.118103 59.118103 -59.118103l0 0c15.679108 0 30.716034 6.228485 41.802826 17.315277c11.086792 11.086792 17.315277 26.123718 17.315277 41.802826l0 0c0 32.650024 -26.468079 59.118103 -59.118103 59.118103l0 0c-32.650024 0 -59.118103 -26.468079 -59.118103 -59.118103z" fill-rule="evenodd"></path><path fill="#cfe2f3" d="m503.6286 147.53543l0 0c0 -32.650032 26.468079 -59.11811 59.118103 -59.11811l0 0c15.679138 0 30.716064 6.2285004 41.802856 17.3153c11.086792 11.086792 17.315247 26.123718 17.315247 41.80281l0 0c0 32.65004 -26.468079 59.11812 -59.118103 59.11812l0 0c-32.650024 0 -59.118103 -26.468079 -59.118103 -59.11812z" fill-rule="evenodd"></path><path stroke="#000000" stroke-width="1.0" stroke-linejoin="round" stroke-linecap="butt" d="m503.6286 147.53543l0 0c0 -32.650032 26.468079 -59.11811 59.118103 -59.11811l0 0c15.679138 0 30.716064 6.2285004 41.802856 17.3153c11.086792 11.086792 17.315247 26.123718 17.315247 41.80281l0 0c0 32.65004 -26.468079 59.11812 -59.118103 59.11812l0 0c-32.650024 0 -59.118103 -26.468079 -59.118103 -59.11812z" fill-rule="evenodd"></path><path fill="#cfe2f3" d="m503.6286 384.00787l0 0c0 -32.650024 26.468079 -59.118103 59.118103 -59.118103l0 0c15.679138 0 30.716064 6.228485 41.802856 17.315277c11.086792 11.086792 17.315247 26.123718 17.315247 41.802826l0 0c0 32.650024 -26.468079 59.118103 -59.118103 59.118103l0 0c-32.650024 0 -59.118103 -26.468079 -59.118103 -59.118103z" fill-rule="evenodd"></path><path stroke="#000000" stroke-width="1.0" stroke-linejoin="round" stroke-linecap="butt" d="m503.6286 384.00787l0 0c0 -32.650024 26.468079 -59.118103 59.118103 -59.118103l0 0c15.679138 0 30.716064 6.228485 41.802856 17.315277c11.086792 11.086792 17.315247 26.123718 17.315247 41.802826l0 0c0 32.650024 -26.468079 59.118103 -59.118103 59.118103l0 0c-32.650024 0 -59.118103 -26.468079 -59.118103 -59.118103z" fill-rule="evenodd"></path><path fill="#cfe2f3" d="m669.8543 147.53543l0 0c0 -32.650032 26.468079 -59.11811 59.118103 -59.11811l0 0c15.679138 0 30.716064 6.2285004 41.802856 17.3153c11.086792 11.086792 17.315308 26.123718 17.315308 41.80281l0 0c0 32.65004 -26.468079 59.11812 -59.118164 59.11812l0 0c-32.650024 0 -59.118103 -26.468079 -59.118103 -59.11812z" fill-rule="evenodd"></path><path stroke="#000000" stroke-width="1.0" stroke-linejoin="round" stroke-linecap="butt" d="m669.8543 147.53543l0 0c0 -32.650032 26.468079 -59.11811 59.118103 -59.11811l0 0c15.679138 0 30.716064 6.2285004 41.802856 17.3153c11.086792 11.086792 17.315308 26.123718 17.315308 41.80281l0 0c0 32.65004 -26.468079 59.11812 -59.118164 59.11812l0 0c-32.650024 0 -59.118103 -26.468079 -59.118103 -59.11812z" fill-rule="evenodd"></path><path fill="#cfe2f3" d="m669.8543 384.00787l0 0c0 -32.650024 26.468079 -59.118103 59.118103 -59.118103l0 0c15.679138 0 30.716064 6.228485 41.802856 17.315277c11.086792 11.086792 17.315308 26.123718 17.315308 41.802826l0 0c0 32.650024 -26.468079 59.118103 -59.118164 59.118103l0 0c-32.650024 0 -59.118103 -26.468079 -59.118103 -59.118103z" fill-rule="evenodd"></path><path stroke="#000000" stroke-width="1.0" stroke-linejoin="round" stroke-linecap="butt" d="m669.8543 384.00787l0 0c0 -32.650024 26.468079 -59.118103 59.118103 -59.118103l0 0c15.679138 0 30.716064 6.228485 41.802856 17.315277c11.086792 11.086792 17.315308 26.123718 17.315308 41.802826l0 0c0 32.650024 -26.468079 59.118103 -59.118164 59.118103l0 0c-32.650024 0 -59.118103 -26.468079 -59.118103 -59.118103z" fill-rule="evenodd"></path><path fill="#000000" fill-opacity="0.0" d="m123.18767 265.77167l48.0 0" fill-rule="evenodd"></path><path stroke="#000000" stroke-width="1.0" stroke-linejoin="round" stroke-linecap="butt" d="m123.18767 265.77167l48.0 0" fill-rule="evenodd"></path><path fill="#000000" fill-opacity="0.0" d="m272.09808 223.96884l65.29135 -76.44095" fill-rule="evenodd"></path><path stroke="#000000" stroke-width="1.0" stroke-linejoin="round" stroke-linecap="butt" d="m272.09808 223.96884l65.29135 -76.44095" fill-rule="evenodd"></path><path fill="#000000" fill-opacity="0.0" d="m272.09808 307.57446l65.29135 76.44095" fill-rule="evenodd"></path><path stroke="#000000" stroke-width="1.0" stroke-linejoin="round" stroke-linecap="butt" d="m272.09808 307.57446l65.29135 76.44095" fill-rule="evenodd"></path><path fill="#000000" fill-opacity="0.0" d="m455.6391 147.53543l48.0 0" fill-rule="evenodd"></path><path stroke="#000000" stroke-width="1.0" stroke-linejoin="round" stroke-linecap="butt" d="m455.6391 147.53543l48.0 0" fill-rule="evenodd"></path><path fill="#000000" fill-opacity="0.0" d="m455.6391 384.00787l48.0 0" fill-rule="evenodd"></path><path stroke="#000000" stroke-width="1.0" stroke-linejoin="round" stroke-linecap="butt" d="m455.6391 384.00787l48.0 0" fill-rule="evenodd"></path><path fill="#000000" fill-opacity="0.0" d="m621.8648 384.00787l48.0 0" fill-rule="evenodd"></path><path stroke="#000000" stroke-width="1.0" stroke-linejoin="round" stroke-linecap="butt" d="m621.8648 384.00787l48.0 0" fill-rule="evenodd"></path><path fill="#cfe2f3" d="m836.0906 147.53543l0 0c0 -32.650032 26.468079 -59.11811 59.118103 -59.11811l0 0c15.679077 0 30.716003 6.2285004 41.802795 17.3153c11.086792 11.086792 17.315308 26.123718 17.315308 41.80281l0 0c0 32.65004 -26.468079 59.11812 -59.118103 59.11812l0 0c-32.650024 0 -59.118103 -26.468079 -59.118103 -59.11812z" fill-rule="evenodd"></path><path stroke="#000000" stroke-width="1.0" stroke-linejoin="round" stroke-linecap="butt" d="m836.0906 147.53543l0 0c0 -32.650032 26.468079 -59.11811 59.118103 -59.11811l0 0c15.679077 0 30.716003 6.2285004 41.802795 17.3153c11.086792 11.086792 17.315308 26.123718 17.315308 41.80281l0 0c0 32.65004 -26.468079 59.11812 -59.118103 59.11812l0 0c-32.650024 0 -59.118103 -26.468079 -59.118103 -59.11812z" fill-rule="evenodd"></path><path fill="#cfe2f3" d="m836.0906 384.00787l0 0c0 -32.650024 26.468079 -59.118103 59.118103 -59.118103l0 0c15.679077 0 30.716003 6.228485 41.802795 17.315277c11.086792 11.086792 17.315308 26.123718 17.315308 41.802826l0 0c0 32.650024 -26.468079 59.118103 -59.118103 59.118103l0 0c-32.650024 0 -59.118103 -26.468079 -59.118103 -59.118103z" fill-rule="evenodd"></path><path stroke="#000000" stroke-width="1.0" stroke-linejoin="round" stroke-linecap="butt" d="m836.0906 384.00787l0 0c0 -32.650024 26.468079 -59.118103 59.118103 -59.118103l0 0c15.679077 0 30.716003 6.228485 41.802795 17.315277c11.086792 11.086792 17.315308 26.123718 17.315308 41.802826l0 0c0 32.650024 -26.468079 59.118103 -59.118103 59.118103l0 0c-32.650024 0 -59.118103 -26.468079 -59.118103 -59.118103z" fill-rule="evenodd"></path><path fill="#000000" fill-opacity="0.0" d="m788.0906 384.00787l48.0 0" fill-rule="evenodd"></path><path stroke="#000000" stroke-width="1.0" stroke-linejoin="round" stroke-linecap="butt" d="m788.0906 384.00787l48.0 0" fill-rule="evenodd"></path><path fill="#000000" fill-opacity="0.0" d="m43.06168 206.65355l42.01575 0l0 44.503937l-42.01575 0z" fill-rule="evenodd"></path><path fill="#000000" d="m59.662945 226.87042q0 -2.421875 0.5 -3.890625q0.5 -1.46875 1.46875 -2.265625q0.984375 -0.796875 2.4687462 -0.796875q1.09375 0 1.921875 0.4375q0.828125 0.4375 1.359375 1.28125q0.546875 0.828125 0.84375 2.015625q0.3125 1.1875 0.3125 3.21875q0 2.390625 -0.5 3.859375q-0.484375 1.46875 -1.46875 2.28125q-0.96875 0.796875 -2.46875 0.796875q-1.9687462 0 -3.0781212 -1.40625q-1.359375 -1.703125 -1.359375 -5.53125zm1.71875 0q0 3.34375 0.78125 4.453125q0.796875 1.109375 1.9374962 1.109375q1.15625 0 1.9375 -1.109375q0.78125 -1.125 0.78125 -4.453125q0 -3.359375 -0.78125 -4.46875q-0.78125 -1.109375 -1.953125 -1.109375q-1.1562462 0 -1.8281212 0.984375q-0.875 1.234375 -0.875 4.59375z" fill-rule="nonzero"></path><path fill="#000000" fill-opacity="0.0" d="m209.2874 206.65355l42.015747 0l0 44.503937l-42.015747 0z" fill-rule="evenodd"></path><path fill="#000000" d="m232.18555 233.57355l-1.671875 0l0 -10.640625q-0.59375 0.578125 -1.578125 1.15625q-0.984375 0.5625 -1.765625 0.859375l0 -1.625q1.40625 -0.65625 2.453125 -1.59375q1.046875 -0.9375 1.484375 -1.8125l1.078125 0l0 13.65625z" fill-rule="nonzero"></path><path fill="#000000" fill-opacity="0.0" d="m375.51312 88.41732l42.015747 0l0 44.503944l-42.015747 0z" fill-rule="evenodd"></path><path fill="#000000" d="m400.89563 113.72794l0 1.609375l-8.984375 0q-0.015625 -0.609375 0.1875 -1.15625q0.34375 -0.921875 1.09375 -1.8125q0.765625 -0.890625 2.1875 -2.0625q2.21875 -1.8125 3.0 -2.875q0.78125 -1.0625 0.78125 -2.015625q0 -0.984375 -0.71875 -1.671875q-0.703125 -0.6875 -1.84375 -0.6875q-1.203125 0 -1.9375 0.734375q-0.71875 0.71875 -0.71875 2.0l-1.71875 -0.171875q0.171875 -1.921875 1.328125 -2.921875q1.15625 -1.015625 3.09375 -1.015625q1.953125 0 3.09375 1.09375q1.140625 1.078125 1.140625 2.6875q0 0.8125 -0.34375 1.609375q-0.328125 0.78125 -1.109375 1.65625q-0.765625 0.859375 -2.5625 2.390625q-1.5 1.265625 -1.9375 1.71875q-0.421875 0.4375 -0.703125 0.890625l6.671875 0z" fill-rule="nonzero"></path><path fill="#000000" fill-opacity="0.0" d="m541.73883 88.41732l42.015747 0l0 44.503944l-42.015747 0z" fill-rule="evenodd"></path><path fill="#000000" d="m558.3557 111.74357l1.671875 -0.21875q0.28125 1.421875 0.96875 2.046875q0.703125 0.625 1.6875 0.625q1.1875 0 2.0 -0.8125q0.8125 -0.828125 0.8125 -2.03125q0 -1.140625 -0.765625 -1.890625q-0.75 -0.75 -1.90625 -0.75q-0.46875 0 -1.171875 0.1875l0.1875 -1.46875q0.15625 0.015625 0.265625 0.015625q1.0625 0 1.90625 -0.546875q0.859375 -0.5625 0.859375 -1.71875q0 -0.921875 -0.625 -1.515625q-0.609375 -0.609375 -1.59375 -0.609375q-0.96875 0 -1.625 0.609375q-0.640625 0.609375 -0.828125 1.84375l-1.671875 -0.296875q0.296875 -1.6875 1.375 -2.609375q1.09375 -0.921875 2.71875 -0.921875q1.109375 0 2.046875 0.484375q0.9375 0.46875 1.421875 1.296875q0.5 0.828125 0.5 1.75q0 0.890625 -0.46875 1.609375q-0.46875 0.71875 -1.40625 1.15625q1.21875 0.265625 1.875 1.15625q0.671875 0.875 0.671875 2.1875q0 1.78125 -1.296875 3.015625q-1.296875 1.234375 -3.28125 1.234375q-1.796875 0 -2.984375 -1.0625q-1.171875 -1.0625 -1.34375 -2.765625z" fill-rule="nonzero"></path><path fill="#000000" fill-opacity="0.0" d="m707.9698 88.41732l42.015747 0l0 44.503944l-42.015747 0z" fill-rule="evenodd"></path><path fill="#000000" d="m729.9305 115.33732l0 -3.25l-5.90625 0l0 -1.53125l6.21875 -8.8125l1.359375 0l0 8.8125l1.84375 0l0 1.53125l-1.84375 0l0 3.25l-1.671875 0zm0 -4.78125l0 -6.140625l-4.25 6.140625l4.25 0z" fill-rule="nonzero"></path><path fill="#000000" fill-opacity="0.0" d="m874.1903 88.41732l42.015747 0l0 44.503944l-42.015747 0z" fill-rule="evenodd"></path><path fill="#000000" d="m890.79156 111.77482l1.765625 -0.15625q0.1875 1.28125 0.890625 1.9375q0.71875 0.640625 1.71875 0.640625q1.203125 0 2.03125 -0.90625q0.84375 -0.90625 0.84375 -2.421875q0 -1.421875 -0.8125 -2.25q-0.796875 -0.828125 -2.09375 -0.828125q-0.796875 0 -1.453125 0.375q-0.640625 0.359375 -1.015625 0.953125l-1.578125 -0.203125l1.328125 -7.0l6.765625 0l0 1.609375l-5.4375 0l-0.734375 3.640625q1.234375 -0.84375 2.578125 -0.84375q1.78125 0 3.0 1.234375q1.234375 1.234375 1.234375 3.171875q0 1.84375 -1.078125 3.1875q-1.3125 1.65625 -3.578125 1.65625q-1.859375 0 -3.03125 -1.03125q-1.171875 -1.046875 -1.34375 -2.765625z" fill-rule="nonzero"></path><path fill="#000000" fill-opacity="0.0" d="m375.51312 324.88977l42.015747 0l0 44.503937l-42.015747 0z" fill-rule="evenodd"></path><path fill="#000000" d="m400.78625 341.54413l-1.65625 0.125q-0.21875 -0.984375 -0.640625 -1.421875q-0.671875 -0.71875 -1.65625 -0.71875q-0.8125 0 -1.40625 0.4375q-0.796875 0.578125 -1.25 1.6875q-0.453125 1.09375 -0.46875 3.140625q0.609375 -0.921875 1.46875 -1.359375q0.875 -0.453125 1.828125 -0.453125q1.671875 0 2.84375 1.234375q1.171875 1.234375 1.171875 3.171875q0 1.28125 -0.546875 2.390625q-0.546875 1.09375 -1.515625 1.6875q-0.96875 0.578125 -2.1875 0.578125q-2.09375 0 -3.40625 -1.53125q-1.3125 -1.546875 -1.3125 -5.0625q0 -3.953125 1.453125 -5.734375q1.265625 -1.5625 3.421875 -1.5625q1.609375 0 2.625 0.90625q1.03125 0.890625 1.234375 2.484375zm-6.8125 5.859375q0 0.859375 0.359375 1.65625q0.375 0.78125 1.03125 1.203125q0.65625 0.40625 1.375 0.40625q1.0625 0 1.8125 -0.84375q0.765625 -0.859375 0.765625 -2.328125q0 -1.40625 -0.75 -2.21875q-0.75 -0.8125 -1.890625 -0.8125q-1.125 0 -1.921875 0.8125q-0.78125 0.8125 -0.78125 2.125z" fill-rule="nonzero"></path><path fill="#000000" fill-opacity="0.0" d="m541.73883 324.88977l42.015747 0l0 44.503937l-42.015747 0z" fill-rule="evenodd"></path><path fill="#000000" d="m558.4651 339.99725l0 -1.609375l8.796875 0l0 1.296875q-1.296875 1.375 -2.578125 3.671875q-1.265625 2.296875 -1.96875 4.71875q-0.5 1.703125 -0.640625 3.734375l-1.71875 0q0.03125 -1.609375 0.625 -3.875q0.609375 -2.28125 1.734375 -4.390625q1.140625 -2.109375 2.40625 -3.546875l-6.65625 0z" fill-rule="nonzero"></path><path fill="#000000" fill-opacity="0.0" d="m707.9698 324.88977l42.015747 0l0 44.503937l-42.015747 0z" fill-rule="evenodd"></path><path fill="#000000" d="m727.14923 344.43475q-1.046875 -0.375 -1.546875 -1.078125q-0.5 -0.71875 -0.5 -1.703125q0 -1.484375 1.0625 -2.484375q1.078125 -1.015625 2.84375 -1.015625q1.78125 0 2.859375 1.03125q1.09375 1.03125 1.09375 2.515625q0 0.953125 -0.5 1.65625q-0.484375 0.703125 -1.5 1.078125q1.25 0.40625 1.90625 1.3125q0.65625 0.90625 0.65625 2.171875q0 1.75 -1.234375 2.9375q-1.234375 1.1875 -3.25 1.1875q-2.015625 0 -3.25 -1.1875q-1.234375 -1.203125 -1.234375 -2.984375q0 -1.328125 0.671875 -2.21875q0.671875 -0.890625 1.921875 -1.21875zm-0.328125 -2.828125q0 0.96875 0.609375 1.578125q0.625 0.609375 1.625 0.609375q0.953125 0 1.5625 -0.609375q0.625 -0.609375 0.625 -1.484375q0 -0.921875 -0.640625 -1.546875q-0.625 -0.625 -1.578125 -0.625q-0.953125 0 -1.578125 0.609375q-0.625 0.609375 -0.625 1.46875zm-0.546875 6.28125q0 0.71875 0.328125 1.390625q0.34375 0.65625 1.015625 1.03125q0.671875 0.359375 1.4375 0.359375q1.203125 0 1.984375 -0.765625q0.78125 -0.78125 0.78125 -1.96875q0 -1.203125 -0.8125 -1.984375q-0.796875 -0.796875 -2.0 -0.796875q-1.1875 0 -1.96875 0.78125q-0.765625 0.78125 -0.765625 1.953125z" fill-rule="nonzero"></path><path fill="#000000" fill-opacity="0.0" d="m874.1903 324.88977l42.015747 0l0 44.503937l-42.015747 0z" fill-rule="evenodd"></path><path fill="#000000" d="m891.0572 348.66913l1.59375 -0.15625q0.203125 1.140625 0.78125 1.65625q0.578125 0.5 1.484375 0.5q0.765625 0 1.34375 -0.34375q0.578125 -0.359375 0.953125 -0.953125q0.375 -0.59375 0.625 -1.59375q0.25 -1.0 0.25 -2.03125q0 -0.109375 -0.015625 -0.34375q-0.5 0.796875 -1.375 1.296875q-0.859375 0.5 -1.875 0.5q-1.6875 0 -2.859375 -1.21875q-1.171875 -1.234375 -1.171875 -3.234375q0 -2.078125 1.21875 -3.328125q1.234375 -1.265625 3.0625 -1.265625q1.328125 0 2.421875 0.71875q1.109375 0.703125 1.671875 2.03125q0.578125 1.328125 0.578125 3.828125q0 2.609375 -0.578125 4.15625q-0.5625 1.546875 -1.6875 2.359375q-1.109375 0.796875 -2.609375 0.796875q-1.59375 0 -2.609375 -0.890625q-1.0 -0.890625 -1.203125 -2.484375zm6.828125 -6.0q0 -1.4375 -0.765625 -2.28125q-0.765625 -0.859375 -1.84375 -0.859375q-1.109375 0 -1.9375 0.921875q-0.828125 0.90625 -0.828125 2.34375q0 1.3125 0.78125 2.125q0.796875 0.796875 1.9375 0.796875q1.171875 0 1.90625 -0.796875q0.75 -0.8125 0.75 -2.25z" fill-rule="nonzero"></path><path fill="#efefef" d="m631.0906 164.92651l102.36218 0l0 118.236206l-102.36218 0z" fill-rule="evenodd"></path><path stroke="#000000" stroke-width="1.0" stroke-linejoin="round" stroke-linecap="butt" d="m631.0906 164.92651l102.36218 0l0 118.236206l-102.36218 0z" fill-rule="evenodd"></path><path fill="#000000" d="m647.95917 194.40651l0 -11.453125l8.28125 0l0 1.34375l-6.765625 0l0 3.515625l6.34375 0l0 1.34375l-6.34375 0l0 3.890625l7.03125 0l0 1.359375l-8.546875 0zm9.53125 0l3.03125 -4.3125l-2.8125 -3.984375l1.765625 0l1.265625 1.9375q0.359375 0.5625 0.578125 0.9375q0.34375 -0.515625 0.640625 -0.921875l1.390625 -1.953125l1.6875 0l-2.875 3.90625l3.09375 4.390625l-1.734375 0l-1.703125 -2.578125l-0.453125 -0.703125l-2.171875 3.28125l-1.703125 0zm8.9375 3.1875l0 -11.484375l1.28125 0l0 1.078125q0.453125 -0.640625 1.015625 -0.953125q0.578125 -0.3125 1.390625 -0.3125q1.0625 0 1.875 0.546875q0.8125 0.546875 1.21875 1.546875q0.421875 0.984375 0.421875 2.171875q0 1.28125 -0.46875 2.296875q-0.453125 1.015625 -1.328125 1.5625q-0.859375 0.546875 -1.828125 0.546875q-0.703125 0 -1.265625 -0.296875q-0.546875 -0.296875 -0.90625 -0.75l0 4.046875l-1.40625 0zm1.265625 -7.296875q0 1.609375 0.640625 2.375q0.65625 0.765625 1.578125 0.765625q0.9375 0 1.609375 -0.796875q0.671875 -0.796875 0.671875 -2.453125q0 -1.59375 -0.65625 -2.375q-0.65625 -0.796875 -1.5625 -0.796875q-0.890625 0 -1.59375 0.84375q-0.6875 0.84375 -0.6875 2.4375zm13.3046875 1.4375l1.453125 0.171875q-0.34375 1.28125 -1.28125 1.984375q-0.921875 0.703125 -2.359375 0.703125q-1.828125 0 -2.890625 -1.125q-1.0625 -1.125 -1.0625 -3.140625q0 -2.09375 1.078125 -3.25q1.078125 -1.15625 2.796875 -1.15625q1.65625 0 2.703125 1.140625q1.0625 1.125 1.0625 3.171875q0 0.125 0 0.375l-6.1875 0q0.078125 1.375 0.765625 2.109375q0.703125 0.71875 1.734375 0.71875q0.78125 0 1.328125 -0.40625q0.546875 -0.40625 0.859375 -1.296875zm-4.609375 -2.28125l4.625 0q-0.09375 -1.046875 -0.53125 -1.5625q-0.671875 -0.8125 -1.734375 -0.8125q-0.96875 0 -1.640625 0.65625q-0.65625 0.640625 -0.71875 1.71875zm13.2421875 1.90625l1.390625 0.1875q-0.234375 1.421875 -1.171875 2.234375q-0.921875 0.8125 -2.28125 0.8125q-1.703125 0 -2.75 -1.109375q-1.03125 -1.125 -1.03125 -3.203125q0 -1.34375 0.4375 -2.34375q0.453125 -1.015625 1.359375 -1.515625q0.921875 -0.5 1.984375 -0.5q1.359375 0 2.21875 0.6875q0.859375 0.671875 1.09375 1.9375l-1.359375 0.203125q-0.203125 -0.828125 -0.703125 -1.25q-0.484375 -0.421875 -1.1875 -0.421875q-1.0625 0 -1.734375 0.765625q-0.65625 0.75 -0.65625 2.40625q0 1.671875 0.640625 2.4375q0.640625 0.75 1.671875 0.75q0.828125 0 1.375 -0.5q0.5625 -0.515625 0.703125 -1.578125zm5.65625 1.78125l0.203125 1.25q-0.59375 0.125 -1.0625 0.125q-0.765625 0 -1.1875 -0.234375q-0.421875 -0.25 -0.59375 -0.640625q-0.171875 -0.40625 -0.171875 -1.671875l0 -4.765625l-1.03125 0l0 -1.09375l1.03125 0l0 -2.0625l1.40625 -0.84375l0 2.90625l1.40625 0l0 1.09375l-1.40625 0l0 4.84375q0 0.609375 0.0625 0.78125q0.078125 0.171875 0.25 0.28125q0.171875 0.09375 0.484375 0.09375q0.234375 0 0.609375 -0.0625zm7.0546875 -1.40625l1.453125 0.171875q-0.34375 1.28125 -1.28125 1.984375q-0.921875 0.703125 -2.359375 0.703125q-1.828125 0 -2.890625 -1.125q-1.0625 -1.125 -1.0625 -3.140625q0 -2.09375 1.078125 -3.25q1.078125 -1.15625 2.796875 -1.15625q1.65625 0 2.703125 1.140625q1.0625 1.125 1.0625 3.171875q0 0.125 0 0.375l-6.1875 0q0.078125 1.375 0.765625 2.109375q0.703125 0.71875 1.734375 0.71875q0.78125 0 1.328125 -0.40625q0.546875 -0.40625 0.859375 -1.296875zm-4.609375 -2.28125l4.625 0q-0.09375 -1.046875 -0.53125 -1.5625q-0.671875 -0.8125 -1.734375 -0.8125q-0.96875 0 -1.640625 0.65625q-0.65625 0.640625 -0.71875 1.71875zm13.2109375 4.953125l0 -1.046875q-0.78125 1.234375 -2.3125 1.234375q-1.0 0 -1.828125 -0.546875q-0.828125 -0.546875 -1.296875 -1.53125q-0.453125 -0.984375 -0.453125 -2.25q0 -1.25 0.40625 -2.25q0.421875 -1.015625 1.25 -1.546875q0.828125 -0.546875 1.859375 -0.546875q0.75 0 1.328125 0.3125q0.59375 0.3125 0.953125 0.828125l0 -4.109375l1.40625 0l0 11.453125l-1.3125 0zm-4.4375 -4.140625q0 1.59375 0.671875 2.390625q0.671875 0.78125 1.578125 0.78125q0.921875 0 1.5625 -0.75q0.65625 -0.765625 0.65625 -2.3125q0 -1.703125 -0.65625 -2.5q-0.65625 -0.796875 -1.625 -0.796875q-0.9375 0 -1.5625 0.765625q-0.625 0.765625 -0.625 2.421875zm8.3515625 -2.5625l0 -1.59375l1.59375 0l0 1.59375l-1.59375 0zm0 6.703125l0 -1.609375l1.59375 0l0 1.609375l-1.59375 0z" fill-rule="nonzero"></path><path fill="#000000" d="m657.34766 220.40651l0 -15.03125l6.65625 0q2.015625 0 3.0625 0.40625q1.046875 0.40625 1.671875 1.4375q0.625 1.015625 0.625 2.25q0 1.609375 -1.046875 2.703125q-1.03125 1.09375 -3.1875 1.390625q0.78125 0.390625 1.203125 0.75q0.859375 0.796875 1.640625 2.0l2.625 4.09375l-2.515625 0l-1.984375 -3.125q-0.875 -1.359375 -1.4375 -2.078125q-0.5625 -0.71875 -1.015625 -1.0q-0.4375 -0.28125 -0.890625 -0.40625q-0.34375 -0.0625 -1.109375 -0.0625l-2.3125 0l0 6.671875l-1.984375 0zm1.984375 -8.390625l4.28125 0q1.359375 0 2.125 -0.28125q0.765625 -0.296875 1.171875 -0.90625q0.40625 -0.625 0.40625 -1.359375q0 -1.0625 -0.78125 -1.75q-0.78125 -0.6875 -2.453125 -0.6875l-4.75 0l0 4.984375z" fill-rule="nonzero"></path><path fill="#000000" d="m671.53143 204.21901l0.3125 -0.96875q1.09375 0.390625 1.578125 0.671875q-0.125 -1.25 -0.140625 -1.703125l1.0 0q-0.015625 0.671875 -0.15625 1.6875q0.703125 -0.359375 1.609375 -0.65625l0.3125 0.96875q-0.859375 0.296875 -1.703125 0.390625q0.421875 0.359375 1.1875 1.28125l-0.828125 0.59375q-0.390625 -0.546875 -0.9375 -1.46875q-0.5 0.953125 -0.890625 1.46875l-0.796875 -0.59375q0.78125 -0.96875 1.125 -1.28125q-0.875 -0.171875 -1.671875 -0.390625z" fill-rule="nonzero"></path><path fill="#000000" d="m681.15845 228.40651l0 -2.40625l-4.359375 0l0 -1.125l4.578125 -6.484375l1.0 0l0 6.484375l1.359375 0l0 1.125l-1.359375 0l0 2.40625l-1.21875 0zm0 -3.53125l0 -4.515625l-3.140625 4.515625l3.140625 0z" fill-rule="nonzero"></path><path fill="#000000" d="m695.62866 211.56276l-9.921875 0l0 -1.71875l9.921875 0l0 1.71875zm0 4.5625l-9.921875 0l0 -1.71875l9.921875 0l0 1.71875zm2.2365112 -3.125q0 -2.671875 0.546875 -4.296875q0.546875 -1.625 1.625 -2.5q1.078125 -0.890625 2.71875 -0.890625q1.21875 0 2.125 0.484375q0.921875 0.484375 1.515625 1.40625q0.59375 0.921875 0.921875 2.234375q0.34375 1.3125 0.34375 3.5625q0 2.640625 -0.546875 4.265625q-0.53125 1.625 -1.625 2.515625q-1.078125 0.875 -2.734375 0.875q-2.171875 0 -3.40625 -1.546875q-1.484375 -1.875 -1.484375 -6.109375zm1.890625 0q0 3.6875 0.859375 4.921875q0.875 1.21875 2.140625 1.21875q1.28125 0 2.140625 -1.21875q0.875 -1.234375 0.875 -4.921875q0 -3.71875 -0.875 -4.9375q-0.859375 -1.21875 -2.15625 -1.21875q-1.265625 0 -2.03125 1.078125q-0.953125 1.375 -0.953125 5.078125z" fill-rule="nonzero"></path><path fill="#000000" d="m657.7834 241.28651l4.40625 -11.453125l1.640625 0l4.6875 11.453125l-1.734375 0l-1.328125 -3.46875l-4.796875 0l-1.25 3.46875l-1.625 0zm3.3125 -4.703125l3.890625 0l-1.203125 -3.171875q-0.546875 -1.453125 -0.8125 -2.375q-0.21875 1.09375 -0.609375 2.1875l-1.265625 3.359375zm13.859375 1.65625l1.390625 0.1875q-0.234375 1.421875 -1.171875 2.234375q-0.921875 0.8125 -2.28125 0.8125q-1.703125 0 -2.75 -1.109375q-1.03125 -1.125 -1.03125 -3.203125q0 -1.34375 0.4375 -2.34375q0.453125 -1.015625 1.359375 -1.515625q0.921875 -0.5 1.984375 -0.5q1.359375 0 2.21875 0.6875q0.859375 0.671875 1.09375 1.9375l-1.359375 0.203125q-0.203125 -0.828125 -0.703125 -1.25q-0.484375 -0.421875 -1.1875 -0.421875q-1.0625 0 -1.734375 0.765625q-0.65625 0.75 -0.65625 2.40625q0 1.671875 0.640625 2.4375q0.640625 0.75 1.671875 0.75q0.828125 0 1.375 -0.5q0.5625 -0.515625 0.703125 -1.578125zm5.65625 1.78125l0.203125 1.25q-0.59375 0.125 -1.0625 0.125q-0.765625 0 -1.1875 -0.234375q-0.421875 -0.25 -0.59375 -0.640625q-0.171875 -0.40625 -0.171875 -1.671875l0 -4.765625l-1.03125 0l0 -1.09375l1.03125 0l0 -2.0625l1.40625 -0.84375l0 2.90625l1.40625 0l0 1.09375l-1.40625 0l0 4.84375q0 0.609375 0.0625 0.78125q0.078125 0.171875 0.25 0.28125q0.171875 0.09375 0.484375 0.09375q0.234375 0 0.609375 -0.0625zm6.8203125 1.265625l0 -1.21875q-0.96875 1.40625 -2.640625 1.40625q-0.734375 0 -1.375 -0.28125q-0.625 -0.28125 -0.9375 -0.703125q-0.3125 -0.4375 -0.4375 -1.046875q-0.078125 -0.421875 -0.078125 -1.3125l0 -5.140625l1.40625 0l0 4.59375q0 1.109375 0.078125 1.484375q0.140625 0.5625 0.5625 0.875q0.4375 0.3125 1.0625 0.3125q0.640625 0 1.1875 -0.3125q0.5625 -0.328125 0.78125 -0.890625q0.234375 -0.5625 0.234375 -1.625l0 -4.4375l1.40625 0l0 8.296875l-1.25 0zm8.8671875 -1.03125q-0.78125 0.671875 -1.5 0.953125q-0.71875 0.265625 -1.546875 0.265625q-1.375 0 -2.109375 -0.671875q-0.734375 -0.671875 -0.734375 -1.703125q0 -0.609375 0.28125 -1.109375q0.28125 -0.515625 0.71875 -0.8125q0.453125 -0.3125 1.015625 -0.46875q0.421875 -0.109375 1.25 -0.203125q1.703125 -0.203125 2.515625 -0.484375q0 -0.296875 0 -0.375q0 -0.859375 -0.390625 -1.203125q-0.546875 -0.484375 -1.609375 -0.484375q-0.984375 0 -1.46875 0.359375q-0.46875 0.34375 -0.6875 1.21875l-1.375 -0.1875q0.1875 -0.875 0.609375 -1.421875q0.4375 -0.546875 1.25 -0.828125q0.8125 -0.296875 1.875 -0.296875q1.0625 0 1.71875 0.25q0.671875 0.25 0.984375 0.625q0.3125 0.375 0.4375 0.953125q0.078125 0.359375 0.078125 1.296875l0 1.875q0 1.96875 0.078125 2.484375q0.09375 0.515625 0.359375 1.0l-1.46875 0q-0.21875 -0.4375 -0.28125 -1.03125zm-0.109375 -3.140625q-0.765625 0.3125 -2.296875 0.53125q-0.875 0.125 -1.234375 0.28125q-0.359375 0.15625 -0.5625 0.46875q-0.1875 0.296875 -0.1875 0.65625q0 0.5625 0.421875 0.9375q0.4375 0.375 1.25 0.375q0.8125 0 1.4375 -0.34375q0.640625 -0.359375 0.9375 -0.984375q0.234375 -0.46875 0.234375 -1.40625l0 -0.515625zm3.5703125 4.171875l0 -11.453125l1.40625 0l0 11.453125l-1.40625 0zm3.9765625 -6.703125l0 -1.59375l1.59375 0l0 1.59375l-1.59375 0zm0 6.703125l0 -1.609375l1.59375 0l0 1.609375l-1.59375 0z" fill-rule="nonzero"></path><path fill="#000000" d="m660.1143 265.4065l0 -15.031235l6.65625 0q2.015625 0 3.0625 0.40625q1.046875 0.40625 1.671875 1.4375q0.625 1.015625 0.625 2.25q0 1.6093597 -1.046875 2.7031097q-1.03125 1.09375 -3.1875 1.390625q0.78125 0.390625 1.203125 0.75q0.859375 0.796875 1.640625 2.0l2.625 4.09375l-2.515625 0l-1.984375 -3.125q-0.875 -1.359375 -1.4375 -2.078125q-0.5625 -0.71875 -1.015625 -1.0q-0.4375 -0.28125 -0.890625 -0.40625q-0.34375 -0.0625 -1.109375 -0.0625l-2.3125 0l0 6.671875l-1.984375 0zm1.984375 -8.390625l4.28125 0q1.359375 0 2.125 -0.28125q0.765625 -0.296875 1.171875 -0.90623474q0.40625 -0.625 0.40625 -1.359375q0 -1.0625 -0.78125 -1.75q-0.78125 -0.6875 -2.453125 -0.6875l-4.75 0l0 4.9843597z" fill-rule="nonzero"></path><path fill="#000000" d="m678.39185 273.4065l0 -2.40625l-4.359375 0l0 -1.125l4.578125 -6.484375l1.0 0l0 6.484375l1.359375 0l0 1.125l-1.359375 0l0 2.40625l-1.21875 0zm0 -3.53125l0 -4.515625l-3.140625 4.515625l3.140625 0z" fill-rule="nonzero"></path><path fill="#000000" d="m692.862 256.56274l-9.921875 0l0 -1.7187347l9.921875 0l0 1.7187347zm0 4.5625l-9.921875 0l0 -1.71875l9.921875 0l0 1.71875zm2.2365112 0.34375l1.9375 -0.171875q0.21875 1.421875 1.0 2.140625q0.78125 0.703125 1.890625 0.703125q1.328125 0 2.25 -1.0q0.921875 -1.0 0.921875 -2.671875q0 -1.578125 -0.890625 -2.484375q-0.875 -0.921875 -2.3125 -0.921875q-0.890625 0 -1.609375 0.40625q-0.71875 0.40625 -1.125 1.0625l-1.734375 -0.234375l1.453125 -7.7187347l7.46875 0l0 1.765625l-6.0 0l-0.796875 4.0312347q1.34375 -0.93748474 2.828125 -0.93748474q1.96875 0 3.328125 1.3749847q1.359375 1.359375 1.359375 3.5q0 2.03125 -1.1875 3.53125q-1.453125 1.8125 -3.953125 1.8125q-2.046875 0 -3.34375 -1.140625q-1.296875 -1.15625 -1.484375 -3.046875z" fill-rule="nonzero"></path><path fill="#000000" d="m549.5079 147.53543l0 0c0 -7.314514 5.9295654 -13.244095 13.24408 -13.244095l0 0c3.5125732 0 6.8812256 1.3953552 9.36499 3.8791046c2.4837646 2.4837494 3.8790894 5.8524475 3.8790894 9.36499l0 0c0 7.314514 -5.9295654 13.244095 -13.24408 13.244095l0 0c-7.314514 0 -13.24408 -5.9295807 -13.24408 -13.244095z" fill-rule="evenodd"></path><path stroke="#000000" stroke-width="1.0" stroke-linejoin="round" stroke-linecap="butt" d="m549.5079 147.53543l0 0c0 -7.314514 5.9295654 -13.244095 13.24408 -13.244095l0 0c3.5125732 0 6.8812256 1.3953552 9.36499 3.8791046c2.4837646 2.4837494 3.8790894 5.8524475 3.8790894 9.36499l0 0c0 7.314514 -5.9295654 13.244095 -13.24408 13.244095l0 0c-7.314514 0 -13.24408 -5.9295807 -13.24408 -13.244095z" fill-rule="evenodd"></path><path fill="#000000" fill-opacity="0.0" d="m499.08777 82.926346l54.299194 55.244095" fill-rule="evenodd"></path><path stroke="#000000" stroke-width="1.0" stroke-linejoin="round" stroke-linecap="butt" d="m499.08777 82.92635l50.093323 50.965004" fill-rule="evenodd"></path><path fill="#000000" stroke="#000000" stroke-width="1.0" stroke-linecap="butt" d="m548.0031 135.0492l4.35907 2.0786438l-2.0031128 -4.3943024z" fill-rule="evenodd"></path><path fill="#000000" fill-opacity="0.0" d="m433.88846 49.440945l168.31497 0l0 30.834644l-168.31497 0z" fill-rule="evenodd"></path><path fill="#000000" d="m448.18533 76.36095l0 -5.765625l-5.234375 -7.828129l2.1875 0l2.671875 4.093754q0.75 1.15625 1.390625 2.296875q0.609375 -1.0625 1.484375 -2.40625l2.625 -3.9843788l2.109375 0l-5.4375 7.828129l0 5.765625l-1.796875 0zm7.771698 -4.921875q0 -2.734375 1.53125 -4.0625q1.265625 -1.09375 3.09375 -1.09375q2.03125 0 3.3125 1.34375q1.296875 1.328125 1.296875 3.671875q0 1.90625 -0.578125 3.0q-0.5625 1.078125 -1.65625 1.6875q-1.078125 0.59375 -2.375 0.59375q-2.0625 0 -3.34375 -1.328125q-1.28125 -1.328125 -1.28125 -3.8125zm1.71875 0q0 1.890625 0.828125 2.828125q0.828125 0.9375 2.078125 0.9375q1.25 0 2.0625 -0.9375q0.828125 -0.953125 0.828125 -2.890625q0 -1.828125 -0.828125 -2.765625q-0.828125 -0.9375 -2.0625 -0.9375q-1.25 0 -2.078125 0.9375q-0.828125 0.9375 -0.828125 2.828125zm15.735077 4.921875l0 -1.453125q-1.140625 1.671875 -3.125 1.671875q-0.859375 0 -1.625 -0.328125q-0.75 -0.34375 -1.125 -0.84375q-0.359375 -0.5 -0.515625 -1.234375q-0.09375 -0.5 -0.09375 -1.5625l0 -6.109375l1.671875 0l0 5.46875q0 1.3125 0.09375 1.765625q0.15625 0.65625 0.671875 1.03125q0.515625 0.375 1.265625 0.375q0.75 0 1.40625 -0.375q0.65625 -0.390625 0.921875 -1.046875q0.28125 -0.671875 0.28125 -1.9375l0 -5.28125l1.671875 0l0 9.859375l-1.5 0zm15.543396 -1.21875q-0.9375 0.796875 -1.796875 1.125q-0.859375 0.3125 -1.84375 0.3125q-1.609375 0 -2.484375 -0.78125q-0.875 -0.796875 -0.875 -2.03125q0 -0.734375 0.328125 -1.328125q0.328125 -0.59375 0.859375 -0.953125q0.53125 -0.359375 1.203125 -0.546875q0.5 -0.140625 1.484375 -0.25q2.03125 -0.25 2.984375 -0.578125q0 -0.34375 0 -0.4375q0 -1.015625 -0.46875 -1.4375q-0.640625 -0.5625 -1.90625 -0.5625q-1.171875 0 -1.734375 0.40625q-0.5625 0.40625 -0.828125 1.46875l-1.640625 -0.234375q0.234375 -1.046875 0.734375 -1.6875q0.515625 -0.640625 1.46875 -0.984375q0.96875 -0.359375 2.25 -0.359375q1.265625 0 2.046875 0.296875q0.78125 0.296875 1.15625 0.75q0.375 0.453125 0.515625 1.140625q0.09375 0.421875 0.09375 1.53125l0 2.234375q0 2.328125 0.09375 2.953125q0.109375 0.609375 0.4375 1.171875l-1.75 0q-0.265625 -0.515625 -0.328125 -1.21875zm-0.140625 -3.71875q-0.90625 0.359375 -2.734375 0.625q-1.03125 0.140625 -1.453125 0.328125q-0.421875 0.1875 -0.65625 0.546875q-0.234375 0.359375 -0.234375 0.796875q0 0.671875 0.5 1.125q0.515625 0.4375 1.484375 0.4375q0.96875 0 1.71875 -0.421875q0.75 -0.4375 1.109375 -1.15625q0.265625 -0.578125 0.265625 -1.671875l0 -0.609375zm4.0632324 4.9375l0 -9.859375l1.5 0l0 1.5q0.578125 -1.046875 1.0625 -1.375q0.484375 -0.34375 1.078125 -0.34375q0.84375 0 1.71875 0.546875l-0.578125 1.546875q-0.609375 -0.359375 -1.234375 -0.359375q-0.546875 0 -0.984375 0.328125q-0.421875 0.328125 -0.609375 0.90625q-0.28125 0.890625 -0.28125 1.953125l0 5.15625l-1.671875 0zm12.978302 -3.171875l1.71875 0.21875q-0.40625 1.5 -1.515625 2.34375q-1.09375 0.828125 -2.8125 0.828125q-2.15625 0 -3.421875 -1.328125q-1.265625 -1.328125 -1.265625 -3.734375q0 -2.484375 1.265625 -3.859375q1.28125 -1.375 3.328125 -1.375q1.984375 0 3.234375 1.34375q1.25 1.34375 1.25 3.796875q0 0.140625 -0.015625 0.4375l-7.34375 0q0.09375 1.625 0.921875 2.484375q0.828125 0.859375 2.0625 0.859375q0.90625 0 1.546875 -0.46875q0.65625 -0.484375 1.046875 -1.546875zm-5.484375 -2.703125l5.5 0q-0.109375 -1.234375 -0.625 -1.859375q-0.796875 -0.96875 -2.078125 -0.96875q-1.140625 0 -1.9375 0.78125q-0.78125 0.765625 -0.859375 2.046875zm14.293396 5.875l0 -13.593754l1.671875 0l0 4.875004q1.171875 -1.359375 2.953125 -1.359375q1.09375 0 1.890625 0.4375q0.8125 0.421875 1.15625 1.1875q0.359375 0.765625 0.359375 2.203125l0 6.25l-1.671875 0l0 -6.25q0 -1.25 -0.546875 -1.8125q-0.546875 -0.578125 -1.53125 -0.578125q-0.75 0 -1.40625 0.390625q-0.640625 0.375 -0.921875 1.046875q-0.28125 0.65625 -0.28125 1.8125l0 5.390625l-1.671875 0zm17.125732 -3.171875l1.71875 0.21875q-0.40625 1.5 -1.515625 2.34375q-1.09375 0.828125 -2.8125 0.828125q-2.15625 0 -3.421875 -1.328125q-1.265625 -1.328125 -1.265625 -3.734375q0 -2.484375 1.265625 -3.859375q1.28125 -1.375 3.328125 -1.375q1.984375 0 3.234375 1.34375q1.25 1.34375 1.25 3.796875q0 0.140625 -0.015625 0.4375l-7.34375 0q0.09375 1.625 0.921875 2.484375q0.828125 0.859375 2.0625 0.859375q0.90625 0 1.546875 -0.46875q0.65625 -0.484375 1.046875 -1.546875zm-5.484375 -2.703125l5.5 0q-0.109375 -1.234375 -0.625 -1.859375q-0.796875 -0.96875 -2.078125 -0.96875q-1.140625 0 -1.9375 0.78125q-0.78125 0.765625 -0.859375 2.046875zm9.094421 5.875l0 -9.859375l1.5 0l0 1.5q0.578125 -1.046875 1.0625 -1.375q0.484375 -0.34375 1.078125 -0.34375q0.84375 0 1.71875 0.546875l-0.578125 1.546875q-0.609375 -0.359375 -1.234375 -0.359375q-0.546875 0 -0.984375 0.328125q-0.421875 0.328125 -0.609375 0.90625q-0.28125 0.890625 -0.28125 1.953125l0 5.15625l-1.671875 0zm12.9783325 -3.171875l1.71875 0.21875q-0.40625 1.5 -1.515625 2.34375q-1.09375 0.828125 -2.8125 0.828125q-2.15625 0 -3.421875 -1.328125q-1.265625 -1.328125 -1.265625 -3.734375q0 -2.484375 1.265625 -3.859375q1.28125 -1.375 3.328125 -1.375q1.984375 0 3.234375 1.34375q1.25 1.34375 1.25 3.796875q0 0.140625 -0.015625 0.4375l-7.34375 0q0.09375 1.625 0.921875 2.484375q0.828125 0.859375 2.0625 0.859375q0.90625 0 1.546875 -0.46875q0.65625 -0.484375 1.046875 -1.546875zm-5.484375 -2.703125l5.5 0q-0.109375 -1.234375 -0.625 -1.859375q-0.796875 -0.96875 -2.078125 -0.96875q-1.140625 0 -1.9375 0.78125q-0.78125 0.765625 -0.859375 2.046875zm10.000732 2.5l-0.5 -7.203125l0 -3.0156288l2.0625 0l0 3.0156288l-0.484375 7.203125l-1.078125 0zm-0.4375 3.375l0 -1.90625l1.921875 0l0 1.90625l-1.921875 0z" fill-rule="nonzero"></path><path fill="#000000" fill-opacity="0.0" d="m621.8648 147.53543l48.0 0" fill-rule="evenodd"></path><path stroke="#000000" stroke-width="1.0" stroke-linejoin="round" stroke-linecap="butt" d="m621.8648 147.53543l42.0 0" fill-rule="evenodd"></path><path fill="#000000" stroke="#000000" stroke-width="1.0" stroke-linecap="butt" d="m663.8648 149.18716l4.538147 -1.6517334l-4.538147 -1.6517334z" fill-rule="evenodd"></path><path fill="#000000" fill-opacity="0.0" d="m788.0906 147.53543l48.0 0" fill-rule="evenodd"></path><path stroke="#000000" stroke-width="1.0" stroke-linejoin="round" stroke-linecap="butt" d="m788.0906 147.53543l42.0 0" fill-rule="evenodd"></path><path fill="#000000" stroke="#000000" stroke-width="1.0" stroke-linecap="butt" d="m830.0906 149.18716l4.538086 -1.6517334l-4.538086 -1.6517334z" fill-rule="evenodd"></path><path fill="#000000" fill-opacity="0.0" d="m954.3268 147.53543l50.58264 0" fill-rule="evenodd"></path><path stroke="#000000" stroke-width="1.0" stroke-linejoin="round" stroke-linecap="butt" stroke-dasharray="4.0,3.0" d="m954.3268 147.53543l50.58264 0" fill-rule="evenodd"></path><path fill="#000000" fill-opacity="0.0" d="m954.3268 384.00787l50.58264 0" fill-rule="evenodd"></path><path stroke="#000000" stroke-width="1.0" stroke-linejoin="round" stroke-linecap="butt" stroke-dasharray="4.0,3.0" d="m954.3268 384.00787l50.58264 0" fill-rule="evenodd"></path><path fill="#000000" fill-opacity="0.0" d="m733.45276 224.04462l40.566956 0" fill-rule="evenodd"></path><path stroke="#000000" stroke-width="1.0" stroke-linejoin="round" stroke-linecap="butt" d="m733.45276 224.04462l34.566956 0" fill-rule="evenodd"></path><path fill="#000000" stroke="#000000" stroke-width="1.0" stroke-linecap="butt" d="m768.0197 225.69635l4.538086 -1.6517334l-4.538086 -1.6517334z" fill-rule="evenodd"></path><path fill="#efefef" d="m774.0197 193.07611l102.36218 0l0 70.20474l-102.36218 0z" fill-rule="evenodd"></path><path stroke="#000000" stroke-width="1.0" stroke-linejoin="round" stroke-linecap="butt" d="m774.0197 193.07611l102.36218 0l0 70.20474l-102.36218 0z" fill-rule="evenodd"></path><path fill="#000000" d="m796.0172 217.43611l0 -11.453125l1.515625 0l0 11.453125l-1.515625 0zm4.0078125 0l0 -8.296875l1.265625 0l0 1.171875q0.90625 -1.359375 2.640625 -1.359375q0.75 0 1.375 0.265625q0.625 0.265625 0.9375 0.703125q0.3125 0.4375 0.4375 1.046875q0.078125 0.390625 0.078125 1.359375l0 5.109375l-1.40625 0l0 -5.046875q0 -0.859375 -0.171875 -1.28125q-0.15625 -0.4375 -0.578125 -0.6875q-0.40625 -0.25 -0.96875 -0.25q-0.90625 0 -1.5625 0.578125q-0.640625 0.5625 -0.640625 2.15625l0 4.53125l-1.40625 0zm14.3046875 -3.046875l1.390625 0.1875q-0.234375 1.421875 -1.171875 2.234375q-0.921875 0.8125 -2.28125 0.8125q-1.703125 0 -2.75 -1.109375q-1.03125 -1.125 -1.03125 -3.203125q0 -1.34375 0.4375 -2.34375q0.453125 -1.015625 1.359375 -1.515625q0.921875 -0.5 1.984375 -0.5q1.359375 0 2.21875 0.6875q0.859375 0.671875 1.09375 1.9375l-1.359375 0.203125q-0.203125 -0.828125 -0.703125 -1.25q-0.484375 -0.421875 -1.1875 -0.421875q-1.0625 0 -1.734375 0.765625q-0.65625 0.75 -0.65625 2.40625q0 1.671875 0.640625 2.4375q0.640625 0.75 1.671875 0.75q0.828125 0 1.375 -0.5q0.5625 -0.515625 0.703125 -1.578125zm2.578125 3.046875l0 -8.296875l1.265625 0l0 1.25q0.484375 -0.875 0.890625 -1.15625q0.40625 -0.28125 0.90625 -0.28125q0.703125 0 1.4375 0.453125l-0.484375 1.296875q-0.515625 -0.296875 -1.03125 -0.296875q-0.453125 0 -0.828125 0.28125q-0.359375 0.265625 -0.515625 0.765625q-0.234375 0.75 -0.234375 1.640625l0 4.34375l-1.40625 0zm11.015625 -2.671875l1.453125 0.171875q-0.34375 1.28125 -1.28125 1.984375q-0.921875 0.703125 -2.359375 0.703125q-1.828125 0 -2.890625 -1.125q-1.0625 -1.125 -1.0625 -3.140625q0 -2.09375 1.078125 -3.25q1.078125 -1.15625 2.796875 -1.15625q1.65625 0 2.703125 1.140625q1.0625 1.125 1.0625 3.171875q0 0.125 0 0.375l-6.1875 0q0.078125 1.375 0.765625 2.109375q0.703125 0.71875 1.734375 0.71875q0.78125 0 1.328125 -0.40625q0.546875 -0.40625 0.859375 -1.296875zm-4.609375 -2.28125l4.625 0q-0.09375 -1.046875 -0.53125 -1.5625q-0.671875 -0.8125 -1.734375 -0.8125q-0.96875 0 -1.640625 0.65625q-0.65625 0.640625 -0.71875 1.71875zm13.2421875 3.921875q-0.78125 0.671875 -1.5 0.953125q-0.71875 0.265625 -1.546875 0.265625q-1.375 0 -2.109375 -0.671875q-0.734375 -0.671875 -0.734375 -1.703125q0 -0.609375 0.28125 -1.109375q0.28125 -0.515625 0.71875 -0.8125q0.453125 -0.3125 1.015625 -0.46875q0.421875 -0.109375 1.25 -0.203125q1.703125 -0.203125 2.515625 -0.484375q0 -0.296875 0 -0.375q0 -0.859375 -0.390625 -1.203125q-0.546875 -0.484375 -1.609375 -0.484375q-0.984375 0 -1.46875 0.359375q-0.46875 0.34375 -0.6875 1.21875l-1.375 -0.1875q0.1875 -0.875 0.609375 -1.421875q0.4375 -0.546875 1.25 -0.828125q0.8125 -0.296875 1.875 -0.296875q1.0625 0 1.71875 0.25q0.671875 0.25 0.984375 0.625q0.3125 0.375 0.4375 0.953125q0.078125 0.359375 0.078125 1.296875l0 1.875q0 1.96875 0.078125 2.484375q0.09375 0.515625 0.359375 1.0l-1.46875 0q-0.21875 -0.4375 -0.28125 -1.03125zm-0.109375 -3.140625q-0.765625 0.3125 -2.296875 0.53125q-0.875 0.125 -1.234375 0.28125q-0.359375 0.15625 -0.5625 0.46875q-0.1875 0.296875 -0.1875 0.65625q0 0.5625 0.421875 0.9375q0.4375 0.375 1.25 0.375q0.8125 0 1.4375 -0.34375q0.640625 -0.359375 0.9375 -0.984375q0.234375 -0.46875 0.234375 -1.40625l0 -0.515625zm3.0390625 1.6875l1.390625 -0.21875q0.109375 0.84375 0.640625 1.296875q0.546875 0.4375 1.5 0.4375q0.96875 0 1.4375 -0.390625q0.46875 -0.40625 0.46875 -0.9375q0 -0.46875 -0.40625 -0.75q-0.296875 -0.1875 -1.4375 -0.46875q-1.546875 -0.390625 -2.15625 -0.671875q-0.59375 -0.296875 -0.90625 -0.796875q-0.296875 -0.5 -0.296875 -1.109375q0 -0.5625 0.25 -1.03125q0.25 -0.46875 0.6875 -0.78125q0.328125 -0.25 0.890625 -0.40625q0.578125 -0.171875 1.21875 -0.171875q0.984375 0 1.71875 0.28125q0.734375 0.28125 1.078125 0.765625q0.359375 0.46875 0.5 1.28125l-1.375 0.1875q-0.09375 -0.640625 -0.546875 -1.0q-0.453125 -0.359375 -1.265625 -0.359375q-0.96875 0 -1.390625 0.328125q-0.40625 0.3125 -0.40625 0.734375q0 0.28125 0.171875 0.5q0.171875 0.21875 0.53125 0.375q0.21875 0.078125 1.25 0.359375q1.484375 0.390625 2.078125 0.65625q0.59375 0.25 0.921875 0.734375q0.34375 0.484375 0.34375 1.203125q0 0.703125 -0.421875 1.328125q-0.40625 0.609375 -1.1875 0.953125q-0.765625 0.34375 -1.734375 0.34375q-1.625 0 -2.46875 -0.671875q-0.84375 -0.671875 -1.078125 -2.0zm14.234375 -0.1875l1.453125 0.171875q-0.34375 1.28125 -1.28125 1.984375q-0.921875 0.703125 -2.359375 0.703125q-1.828125 0 -2.890625 -1.125q-1.0625 -1.125 -1.0625 -3.140625q0 -2.09375 1.078125 -3.25q1.078125 -1.15625 2.796875 -1.15625q1.65625 0 2.703125 1.140625q1.0625 1.125 1.0625 3.171875q0 0.125 0 0.375l-6.1875 0q0.078125 1.375 0.765625 2.109375q0.703125 0.71875 1.734375 0.71875q0.78125 0 1.328125 -0.40625q0.546875 -0.40625 0.859375 -1.296875zm-4.609375 -2.28125l4.625 0q-0.09375 -1.046875 -0.53125 -1.5625q-0.671875 -0.8125 -1.734375 -0.8125q-0.96875 0 -1.640625 0.65625q-0.65625 0.640625 -0.71875 1.71875z" fill-rule="nonzero"></path><path fill="#000000" d="m820.05597 241.55612l-5.828125 -15.03125l2.15625 0l3.90625 10.921875q0.46875 1.3125 0.78125 2.453125q0.359375 -1.21875 0.8125 -2.453125l4.0625 -10.921875l2.03125 0l-5.890625 15.03125l-2.03125 0z" fill-rule="nonzero"></path><path fill="#000000" d="m828.95355 246.9155l1.21875 -0.171875q0.21875 1.046875 0.71875 1.515625q0.515625 0.453125 1.25 0.453125q0.875 0 1.46875 -0.59375q0.59375 -0.609375 0.59375 -1.5q0 -0.84375 -0.5625 -1.390625q-0.546875 -0.546875 -1.390625 -0.546875q-0.359375 0 -0.875 0.125l0.140625 -1.078125q0.125 0.015625 0.1875 0.015625q0.796875 0 1.421875 -0.40625q0.625 -0.40625 0.625 -1.265625q0 -0.671875 -0.453125 -1.109375q-0.453125 -0.453125 -1.1875 -0.453125q-0.71875 0 -1.203125 0.453125q-0.46875 0.4375 -0.609375 1.34375l-1.21875 -0.21875q0.21875 -1.234375 1.015625 -1.90625q0.796875 -0.6875 1.984375 -0.6875q0.828125 0 1.515625 0.359375q0.6875 0.34375 1.046875 0.953125q0.375 0.609375 0.375 1.296875q0 0.640625 -0.34375 1.171875q-0.34375 0.53125 -1.03125 0.859375q0.890625 0.203125 1.375 0.84375q0.5 0.640625 0.5 1.625q0 1.3125 -0.96875 2.21875q-0.953125 0.90625 -2.40625 0.90625q-1.328125 0 -2.203125 -0.78125q-0.859375 -0.78125 -0.984375 -2.03125z" fill-rule="nonzero"></path><path fill="#000000" fill-opacity="0.0" d="m583.7546 49.440945l65.29138 0l0 47.464565l-65.29138 0z" fill-rule="evenodd"></path><path fill="#000000" d="m601.1902 80.65323l-5.828125 -15.03125l2.15625 0l3.90625 10.921875q0.46875 1.3125 0.78125 2.453125q0.359375 -1.21875 0.8125 -2.453125l4.0625 -10.921875l2.03125 0l-5.890625 15.03125l-2.03125 0z" fill-rule="nonzero"></path><path fill="#000000" d="m610.08777 86.0126l1.21875 -0.171875q0.21875 1.046875 0.71875 1.515625q0.515625 0.453125 1.25 0.453125q0.875 0 1.46875 -0.59375q0.59375 -0.609375 0.59375 -1.5q0 -0.84375 -0.5625 -1.390625q-0.546875 -0.546875 -1.390625 -0.546875q-0.359375 0 -0.875 0.125l0.140625 -1.078125q0.125 0.015625 0.1875 0.015625q0.796875 0 1.421875 -0.40625q0.625 -0.40625 0.625 -1.265625q0 -0.671875 -0.453125 -1.109375q-0.453125 -0.453125 -1.1875 -0.453125q-0.71875 0 -1.203125 0.453125q-0.46875 0.4375 -0.609375 1.34375l-1.21875 -0.21875q0.21875 -1.234375 1.015625 -1.90625q0.796875 -0.6875 1.984375 -0.6875q0.828125 0 1.515625 0.359375q0.6875 0.34375 1.046875 0.953125q0.375 0.609375 0.375 1.296875q0 0.640625 -0.34375 1.171875q-0.34375 0.53125 -1.03125 0.859375q0.890625 0.203125 1.375 0.84375q0.5 0.640625 0.5 1.625q0 1.3125 -0.96875 2.21875q-0.953125 0.90625 -2.40625 0.90625q-1.328125 0 -2.203125 -0.78125q-0.859375 -0.78125 -0.984375 -2.03125z" fill-rule="nonzero"></path><path fill="#000000" d="m622.3079 85.0751q-1.515625 -1.9375 -2.578125 -4.515625q-1.0625 -2.578125 -1.0625 -5.34375q0 -2.453125 0.796875 -4.6875q0.921875 -2.59375 2.84375 -5.15625l1.328125 0q-1.234375 2.125 -1.640625 3.03125q-0.625 1.421875 -0.984375 2.953125q-0.4375 1.921875 -0.4375 3.859375q0 4.9375 3.0625 9.859375l-1.328125 0zm7.618103 -6.078125l0.265625 1.640625q-0.78125 0.15625 -1.40625 0.15625q-1.0 0 -1.5625 -0.3125q-0.546875 -0.328125 -0.78125 -0.84375q-0.21875 -0.515625 -0.21875 -2.171875l0 -6.265625l-1.34375 0l0 -1.4375l1.34375 0l0 -2.703125l1.84375 -1.09375l0 3.796875l1.859375 0l0 1.4375l-1.859375 0l0 6.359375q0 0.796875 0.09375 1.03125q0.09375 0.21875 0.3125 0.359375q0.21875 0.125 0.640625 0.125q0.296875 0 0.8125 -0.078125zm3.0974731 6.078125l-1.328125 0q3.078125 -4.921875 3.078125 -9.859375q0 -1.921875 -0.453125 -3.828125q-0.34375 -1.53125 -0.96875 -2.953125q-0.40625 -0.921875 -1.65625 -3.0625l1.328125 0q1.921875 2.5625 2.84375 5.15625q0.796875 2.234375 0.796875 4.6875q0 2.765625 -1.0625 5.34375q-1.0625 2.578125 -2.578125 4.515625z" fill-rule="nonzero"></path></g></svg>

